<svg width="466" height="60" viewBox="0 0 466 60" fill="none" xmlns="http://www.w3.org/2000/svg">
<g clip-path="url(#clip0_168_74)">
<path d="M363.218 35V28.8H365.518C366.768 29.5 368.818 30.05 371.218 30.05C374.918 30.05 376.768 28.75 376.768 26.35C376.768 24.8 375.968 23.75 373.068 22.45L369.318 20.75C365.818 19.15 362.518 16.6 362.518 11.15C362.518 4.35 367.718 0.5 375.368 0.5C378.218 0.5 381.168 1.05 383.418 2V8.2H381.118C379.868 7.5 378.018 6.95 375.968 6.95C372.768 6.95 371.118 8.25 371.118 10.4C371.118 11.95 371.968 13.1 374.468 14.2L378.168 15.85C381.618 17.4 385.418 19.65 385.418 25.8C385.418 32.6 380.718 36.5 371.868 36.5C368.518 36.5 365.518 35.95 363.218 35Z" fill="black"/>
<path d="M332.93 36V1H341.53V16.9L351.63 1H360.13V3L349.78 17.8L360.53 34V36H351.88L341.53 19.5V36H332.93Z" fill="black"/>
<path d="M300.996 36V1H312.196C321.196 1 325.846 4.05 325.846 11.4C325.846 16.55 323.546 19.55 319.096 21L326.896 34V36H318.496L310.996 22.1H309.496V36H300.996ZM309.496 16.3H311.746C315.496 16.3 317.246 14.85 317.246 11.55C317.246 8.25 315.496 6.8 312.246 6.8H309.496V16.3Z" fill="black"/>
<path d="M279.494 36.5C269.694 36.5 263.994 30.8 263.994 18.5C263.994 6.3 269.694 0.5 279.494 0.5C289.294 0.5 294.994 6.3 294.994 18.5C294.994 30.8 289.294 36.5 279.494 36.5ZM279.494 30C283.844 30 286.094 26.6 286.094 18.5C286.094 10.4 283.844 7 279.494 7C275.144 7 272.894 10.4 272.894 18.5C272.894 26.6 275.144 30 279.494 30Z" fill="black"/>
<path d="M221.088 36L214.338 3V1H222.588L225.938 21.3C226.338 23.7 226.638 26.25 226.938 29.05H227.438C227.788 26.25 227.988 23.75 228.438 21.3L232.088 1H242.538L246.188 21.2C246.638 23.75 246.838 26.25 247.188 29.05H247.688C247.988 26.25 248.288 23.7 248.688 21.3L252.038 1H260.088V3L253.338 36H242.088L238.288 14.8C237.838 12.35 237.588 10 237.488 8.1H236.988C236.888 10 236.638 12.3 236.188 14.8L232.338 36H221.088Z" fill="black"/>
<path d="M174.678 36V1H196.278V7.4H183.278V14.7H195.128V21.1H183.278V29.6H196.278V36H174.678Z" fill="black"/>
<path d="M140.055 24.35V1H148.555V23.85C148.555 28 150.205 30 153.655 30C157.105 30 158.755 28 158.755 23.85V1H167.155V24.35C167.155 31.65 162.855 36.5 153.605 36.5C144.355 36.5 140.055 31.65 140.055 24.35Z" fill="black"/>
<path d="M115.693 36V1H124.293V29H136.393V36H115.693Z" fill="black"/>
<path d="M79.1133 36V34L89.4133 1H100.163L110.463 34V36H102.213L100.363 29.1H89.1133L87.2633 36H79.1133ZM90.6133 22.9H98.8633L96.4133 13.5C95.8133 11.3 95.2133 8.9 95.0133 7.4H94.5133C94.3133 8.9 93.7133 11.3 93.1133 13.5L90.6133 22.9Z" fill="black"/>
<path d="M58.3816 36L48.6816 3V1H57.0316L62.2316 21.3C62.8316 23.7 63.2316 26.25 63.4816 27.9H63.9816C64.2316 26.25 64.5816 23.75 65.2316 21.3L70.4316 1H78.5816V3L68.8816 36H58.3816Z" fill="black"/>
<path d="M28.5273 24.3499V18.1499H45.7773V24.3499H28.5273Z" fill="black"/>
<path d="M0.849609 36V1H22.4496V7.4H9.44961V14.7H21.2996V21.1H9.44961V29.6H22.4496V36H0.849609Z" fill="#18C1F0"/>
</g>
<path d="M465.922 23.4683L465.079 25.9505H450.841C449.343 30.2594 447.797 35.0367 446.205 39.8607H456.415L455.572 42.343H445.408C443.769 47.5418 442.083 52.7405 440.538 57.5177H455.338L454.495 60H436.978C440.631 48.7595 445.221 34.2404 448.968 23.4683H465.922Z" fill="#ECCE61"/>
<path d="M449.798 23.4683L449.002 25.81H438.183C434.576 36.3012 430.408 49.5557 427.036 60H424.272C427.645 49.5557 431.86 36.3012 435.466 25.81H424.647L425.443 23.4683H449.798Z" fill="#ECCE61"/>
<path d="M413.4 60H410.637C414.29 48.7595 418.88 34.2404 422.627 23.4683H425.343C421.596 34.2404 417.053 48.7595 413.4 60Z" fill="#ECCE61"/>
<path d="M412.919 33.819C412.919 41.219 407.252 47.0735 399.852 48.8532C401.304 52.5533 402.943 56.2533 404.629 59.9533H401.585C400.039 56.3938 398.634 52.8811 397.276 49.3216C395.824 49.4621 394.278 49.4621 392.733 49.2748C391.515 52.8343 390.297 56.3938 389.127 59.9533H386.27C389.548 50.5862 392.686 41.219 396.011 31.8519H398.728C396.948 36.8165 395.262 41.8279 393.576 46.7925C402.475 47.7292 410.203 42.1558 410.203 33.9595C410.203 28.4329 405.847 25.3886 400.882 25.3886C397.135 25.3886 393.201 26.8874 390.532 28.5734L389.361 26.3253C392.264 24.5924 396.48 23 400.976 23C407.814 23 412.919 27.2152 412.919 33.819Z" fill="#ECCE61"/>
<path d="M388.471 23.4683H391.281C385.333 35.6455 379.572 47.8228 373.811 60H370.439C370.627 51.757 370.814 43.5607 371.47 35.3177C366.552 43.5607 362.103 51.757 357.56 60H354C356.201 47.8228 358.59 35.6455 361.213 23.4683H363.882C361.447 34.2404 359.292 44.919 357.325 55.6911C361.962 47.4012 366.505 39.1114 371.517 30.8215H374.186C373.484 39.1582 373.343 47.5886 373.203 55.9253C378.401 45.1063 383.366 34.2873 388.471 23.4683Z" fill="#ECCE61"/>
<defs>
<clipPath id="clip0_168_74">
<rect width="386" height="37" fill="white"/>
</clipPath>
</defs>
</svg>
