<?xml version="1.0" encoding="UTF-8"?>
<svg id="_レイヤー_2" xmlns="http://www.w3.org/2000/svg" version="1.1" viewBox="0 0 93.4 77.7">
  <!-- Generator: Adobe Illustrator 29.0.1, SVG Export Plug-In . SVG Version: 2.1.0 Build 192)  -->
  <defs>
    <style>
      .st0 {
        fill: #18c1f0;
      }
    </style>
  </defs>
  <g id="_レイヤー_1-2">
    <path class="st0" d="M41.4,0C26.4,1,15.2,5.9,8.1,14.5-1.2,25.7,0,39.2.1,40.8v34.8c0,1.1.9,2.1,2,2.1h39.4c1.1,0,2-.9,2-2.1v-38.7c0-1.1-.9-2-2-2h-18.5c2.5-15.7,17.8-16,18.5-16,1.1,0,2-.9,2-2V2c0-.6-.2-1.1-.7-1.5S42,0,41.4,0h0Z"/>
    <path class="st0" d="M91.4,19c1.1,0,2.1-.9,2.1-2V2c0-.6-.2-1.1-.7-1.5S91.8,0,91.2,0c-15.1,1-26.3,5.9-33.4,14.5-9.2,11.2-8.1,24.7-7.9,26.3v34.8c0,1.1.9,2.1,2,2.1h39.4c1.1,0,2.1-.9,2.1-2.1v-38.7c0-1.1-.9-2-2.1-2h-18.5c2.5-15.7,17.8-16,18.5-16h0Z"/>
  </g>
</svg>